<svg width="502" height="360" viewBox="0 0 502 360" fill="none" xmlns="http://www.w3.org/2000/svg">
<circle cx="169.771" cy="190.042" r="167.771" fill="#404BAE"/>
<circle cx="157.677" cy="202.133" r="139.723" fill="#404BAE"/>
<g clip-path="url(#clip0)">
<path d="M246.507 272.62L214.229 240.339C223.785 226.898 229.459 210.514 229.459 192.801C229.459 147.399 192.523 110.462 147.121 110.462C101.719 110.462 64.7861 147.399 64.7861 192.801C64.7861 238.199 101.719 275.135 147.121 275.135C166.088 275.135 183.523 268.629 197.456 257.814L229.382 289.739C231.745 292.102 234.85 293.287 237.945 293.287C241.046 293.287 244.144 292.105 246.507 289.739C251.236 285.015 251.236 277.35 246.507 272.62ZM84.1641 192.803C84.1641 158.085 112.412 129.84 147.128 129.84C181.844 129.84 210.092 158.085 210.092 192.803C210.092 207.248 205.155 220.534 196.939 231.171C194.223 234.683 191.174 237.924 187.787 240.795C176.807 250.112 162.624 255.767 147.128 255.767C112.409 255.764 84.1641 227.519 84.1641 192.803Z" fill="white"/>
<path d="M110.14 207.822C108.217 201.228 106.295 194.635 106.19 188.612C106.063 181.384 107.142 174.136 110.65 168.049C114.159 161.963 120.098 157.04 127.283 154.505C133.877 152.582 141.105 152.456 147.761 154.147C141.147 154.865 134.553 156.788 129.185 159.894C123.204 162.408 119.062 166.698 116.736 171.558C113.82 177.031 112.107 182.484 111.621 189.119C109.908 194.571 110.626 201.186 110.14 207.822Z" fill="white"/>
</g>
<path d="M458.624 142.577C460.7 142.577 463.294 142.86 466.408 143.426C469.521 143.897 472.022 144.464 473.909 145.124V161.682H467.398C464.379 161.682 462.304 162.249 461.171 163.381C460.039 164.513 459.473 166.447 459.473 169.183V172.155H473.909V191.261H459.473V246.88H431.31V191.261H420.837V172.155H431.31V169.042C431.31 159.418 433.668 152.625 438.386 148.662C443.103 144.605 449.849 142.577 458.624 142.577Z" fill="white"/>
<path d="M379.127 170.457C392.807 170.457 403.233 173.665 410.404 180.081C417.669 186.496 421.301 196.309 421.301 209.518V214.33H365.257C365.257 219.708 366.437 223.765 368.795 226.501C371.248 229.237 375.07 230.605 380.259 230.605C384.976 230.605 388.42 229.614 390.59 227.633C392.855 225.652 393.987 223.01 393.987 219.708H421.301C421.301 228.765 417.857 235.841 410.97 240.936C404.082 246.031 394.034 248.579 380.825 248.579C366.956 248.579 356.2 245.371 348.557 238.955C340.915 232.445 337.094 222.632 337.094 209.518C337.094 196.686 340.821 186.968 348.274 180.364C355.728 173.759 366.012 170.457 379.127 170.457ZM380.259 188.431C371.39 188.431 366.437 192.629 365.399 201.026H392.855C392.855 197.158 391.722 194.092 389.458 191.827C387.288 189.563 384.222 188.431 380.259 188.431Z" fill="white"/>
<path d="M338.622 179.373C338.622 185.317 337.018 190.695 333.81 195.507C330.603 200.319 325.932 203.857 319.8 206.121L341.453 246.88H306.355L289.089 211.358H277.484V246.88H246.207V149.511H305.789C312.771 149.511 318.715 150.879 323.621 153.615C328.621 156.257 332.348 159.89 334.801 164.513C337.349 169.042 338.622 173.995 338.622 179.373ZM306.779 180.647C306.779 178.099 305.93 175.976 304.232 174.278C302.534 172.58 300.458 171.731 298.005 171.731H277.484V189.704H298.005C300.458 189.704 302.534 188.855 304.232 187.157C305.93 185.364 306.779 183.194 306.779 180.647Z" fill="white"/>
<path d="M381.808 4.00004H406.685L422.302 61.7708C424.79 71.9982 427.232 82.3177 429.627 92.7294L430.18 92.8676C431.194 88.9978 432.484 83.5616 434.05 76.5591C435.709 69.5565 436.86 64.6271 437.505 61.7708L452.985 4.00004H478L442.343 117.192H417.327L381.808 4.00004Z" fill="white"/>
<path d="M301.394 117.192V4.00004H377.823V23.7637H324.337V49.0557H372.433V68.4048H324.337V97.5666H379.344V117.192H301.394Z" fill="white"/>
<path d="M208.055 117.192V4H243.436C261.035 4 274.441 8.92941 283.655 18.7882C292.869 28.5549 297.475 42.4678 297.475 60.5269C297.475 66.3317 296.969 71.7678 295.955 76.8354C295.034 81.9031 293.283 86.9707 290.703 92.0383C288.216 97.1059 284.991 101.436 281.029 105.03C277.159 108.623 271.999 111.572 265.549 113.875C259.1 116.086 251.729 117.192 243.436 117.192H208.055ZM230.998 97.843H241.225C252.005 97.843 260.067 94.8946 265.411 88.9977C270.755 83.1009 273.427 73.6106 273.427 60.5269C273.427 47.0747 270.663 37.5384 265.135 31.918C259.607 26.2975 251.729 23.4873 241.501 23.4873H230.998V97.843Z" fill="white"/>
<defs>
<clipPath id="clip0">
<rect width="185.269" height="185.269" fill="white" transform="translate(64.7861 109.241)"/>
</clipPath>
</defs>
</svg>
